Coordinates
version=1
nRows=16
nColumns=22
inDegrees=yes

Units are S.I. units (second, meters, Newtons, ...)
If the header above contains a line with 'inDegrees', this indicates whether rotational values are in degrees (yes) or radians (no).

endheader
time	pelvis_tilt	pelvis_list	pelvis_rotation	pelvis_tx	pelvis_ty	pelvis_tz	hip_flexion_r	hip_adduction_r	hip_rotation_r	knee_angle_r	ankle_angle_r	subtalar_angle_r	hip_flexion_l	hip_adduction_l	hip_rotation_l	knee_angle_l	ankle_angle_l	subtalar_angle_l	lumbar_extension	lumbar_bending	lumbar_rotation
      0.01000000	     -1.52424028	     -5.01247602	      0.59416933	      1.08456365	      1.01447130	      0.17298711	      1.89631634	      3.29856474	     -3.45732848	    -11.13737248	      8.03457561	      1.67497584	     -1.12433185	     -8.05151034	    -10.96514771	     -8.01057773	     10.24693927	      0.54428798	     -1.57871487	      1.69242487	     -1.52782538
      0.02000000	     -1.46246900	     -5.00721065	      0.64462510	      1.08476433	      1.01453865	      0.17284756	      1.81480496	      3.28753084	     -3.49876149	    -11.13335684	      8.03173801	      1.72534113	     -1.18067264	     -8.04542530	    -10.94708011	     -8.03158613	     10.27637463	      0.58817590	     -1.62086153	      1.69832454	     -1.55413158
      0.03000000	     -1.45328967	     -5.00509257	      0.66598394	      1.08497688	      1.01453147	      0.17275040	      1.79956613	      3.28241665	     -3.49394488	    -11.14950025	      8.03173393	      1.72544733	     -1.19195548	     -8.04042429	    -10.94501119	     -8.04256152	     10.27560806	      0.58887370	     -1.59529965	      1.70867186	     -1.54447889
      0.04000000	     -1.39709077	     -4.99219283	      0.71950583	      1.08519131	      1.01457374	      0.17258743	      1.73326485	      3.26194642	     -3.54203384	    -11.16827641	      8.08027177	      1.73126164	     -1.25121821	     -8.02213826	    -10.87410196	     -8.04887774	     10.30493763	      0.60279490	     -1.62868015	      1.70686292	     -1.54391479
      0.05000000	     -1.38803648	     -4.98964785	      0.74341863	      1.08541270	      1.01456154	      0.17247548	      1.71677117	      3.25565170	     -3.53839148	    -11.18327512	      8.07957392	      1.73127941	     -1.26249066	     -8.01653780	    -10.87341126	     -8.05973525	     10.30409405	      0.60320032	     -1.60188952	      1.71779770	     -1.53377909
      0.06000000	     -1.33733041	     -4.97355129	      0.79871541	      1.08563920	      1.01459529	      0.17229314	      1.64965657	      3.22985158	     -3.60821870	    -11.18866679	      8.12017178	      1.73493061	     -1.31833643	     -7.99345138	    -10.80378373	     -8.06298032	     10.33150860	      0.61171568	     -1.62700339	      1.71377983	     -1.53097085
      0.07000000	     -1.33025370	     -4.97178360	      0.82391520	      1.08583579	      1.01457834	      0.17219088	      1.63552151	      3.22484613	     -3.60466618	    -11.20214943	      8.11991732	      1.73490812	     -1.32744648	     -7.99007814	    -10.80360899	     -8.07041663	     10.33062692	      0.61201557	     -1.60336440	      1.72198399	     -1.51930003
      0.08000000	     -1.30845556	     -4.96625015	      0.86270764	      1.08603093	      1.01457233	      0.17206338	      1.60430577	      3.21292546	     -3.65813873	    -11.21268454	      8.15410406	      1.73755203	     -1.35950344	     -7.97980091	    -10.75032382	     -8.06151126	     10.34600365	      0.61738585	     -1.60060729	      1.72277658	     -1.48872409
      0.09000000	     -1.30365577	     -4.96570955	      0.88764200	      1.08620313	      1.01455068	      0.17197495	      1.59061272	      3.20899955	     -3.67291398	    -11.21771339	      8.16261255	      1.73826629	     -1.36743023	     -7.97847290	    -10.73791453	     -8.06657468	     10.34826991	      0.61852100	     -1.58042050	      1.72647966	     -1.45829023
      0.10000000	     -1.30296786	     -4.96795697	      0.90856096	      1.08636035	      1.01451905	      0.17189433	      1.58653875	      3.20711396	     -3.69672158	    -11.23099149	      8.17784064	      1.73844740	     -1.37652881	     -7.97892953	    -10.71732407	     -8.06134811	     10.35830725	      0.61983844	     -1.55929785	      1.73409769	     -1.42478836
      0.11000000	     -1.30698132	     -4.97262041	      0.93204791	      1.08649248	      1.01448101	      0.17182054	      1.58996644	      3.20882976	     -3.71729033	    -11.24680358	      8.19327362	      1.73829355	     -1.37940357	     -7.98269245	    -10.69841562	     -8.05339488	     10.36918312	      0.62113955	     -1.53776750	      1.74146367	     -1.39326126
      0.12000000	     -1.31795162	     -4.98085797	      0.95174321	      1.08661581	      1.01443544	      0.17174365	      1.60371909	      3.21356097	     -3.73942706	    -11.26698392	      8.21160400	      1.73805929	     -1.37604000	     -7.98915488	    -10.67317147	     -8.04462724	     10.38347325	      0.62296076	     -1.50901297	      1.75639399	     -1.36086430
      0.13000000	     -1.33617226	     -4.99269470	      0.97512073	      1.08671716	      1.01438551	      0.17165180	      1.62839431	      3.22184981	     -3.75148896	    -11.29140500	      8.22743204	      1.73883932	     -1.36200251	     -7.99890025	    -10.64507889	     -8.03657033	     10.39888490	      0.62506167	     -1.47542258	      1.77627887	     -1.33692039
      0.14000000	     -1.33619240	     -4.99265267	      1.00064699	      1.08682313	      1.01437695	      0.17152294	      1.62548780	      3.21626666	     -3.74565114	    -11.30126990	      8.22732503	      1.73877932	     -1.36297296	     -7.99489630	    -10.64601482	     -8.03619247	     10.39980128	      0.62525446	     -1.46422382	      1.78927893	     -1.32768847
      0.15000000	     -1.35856257	     -5.01262627	      1.02710945	      1.08691024	      1.01434142	      0.17138123	      1.65765120	      3.23106616	     -3.73935290	    -11.33018977	      8.23942525	      1.74309178	     -1.34990805	     -8.00825591	    -10.59375298	     -8.01476385	     10.41598022	      0.62730609	     -1.42995064	      1.82484092	     -1.30178788
      0.16000000	     -1.37749159	     -5.02344340	      1.06402199	      1.08699511	      1.01432014	      0.17119693	      1.67970646	      3.23507866	     -3.72538413	    -11.34882015	      8.24147397	      1.75281713	     -1.33057490	     -8.01163456	    -10.55693472	     -8.00657623	     10.42423300	      0.62781011	     -1.40060492	      1.85551736	     -1.30545533
